<svg xmlns="http://www.w3.org/2000/svg" xmlns:xlink="http://www.w3.org/1999/xlink" width="300" zoomAndPan="magnify" viewBox="0 0 224.87999 37.5" height="50" preserveAspectRatio="xMidYMid meet" version="1.0"><defs><g/></defs><g fill="#ffffff" fill-opacity="1"><g transform="translate(8.046748, 30.003765)"><g><path d="M 19.480469 0.0664062 L 20.734375 -0.03125 L 21.363281 0.03125 L 22.386719 0 L 23.308594 -0.164062 L 23.410156 -0.957031 L 23.179688 -1.71875 L 22.683594 -2.9375 L 21.792969 -4.65625 L 21.328125 -5.878906 L 20.667969 -7.066406 L 19.414062 -10.070312 L 19.082031 -10.566406 L 18.753906 -11.191406 L 18.554688 -11.917969 L 18.257812 -12.414062 L 18.058594 -12.941406 L 17.367188 -14.164062 L 17.136719 -14.859375 L 14.957031 -19.445312 L 14.757812 -20.109375 L 14.394531 -20.703125 L 14.199219 -21.296875 L 13.570312 -22.453125 L 13.007812 -23.046875 L 11.917969 -23.375 L 10.863281 -23.011719 L 10.269531 -22.453125 L 9.972656 -21.890625 L 9.738281 -21.230469 L 9.441406 -20.769531 L 8.121094 -17.730469 L 7.757812 -17.234375 L 7.59375 -16.574219 L 7.230469 -15.949219 L 7.03125 -15.351562 L 3.664062 -8.289062 L 3.46875 -7.5625 L 3.136719 -7.066406 L 2.90625 -6.40625 L 2.3125 -5.347656 L 1.816406 -4.027344 L 1.453125 -3.566406 L 1.289062 -2.972656 L 0.628906 -1.652344 L 0.429688 -0.992188 L 0.59375 -0.164062 L 1.253906 0.03125 L 2.542969 -0.03125 L 3.203125 0.03125 L 5.050781 -0.03125 L 5.8125 -0.265625 L 6.4375 -0.859375 L 7.03125 -1.949219 L 7.660156 -2.574219 L 8.351562 -2.9375 L 8.980469 -2.839844 L 10.367188 -2.972656 L 10.960938 -2.871094 L 14.199219 -2.90625 L 14.792969 -2.839844 L 15.519531 -2.9375 L 16.246094 -2.574219 L 16.871094 -2.046875 L 17.167969 -1.417969 L 17.367188 -0.824219 L 18.027344 -0.332031 L 18.785156 0 Z M 11.984375 -8.15625 L 11.324219 -8.289062 L 10.566406 -8.222656 L 10.039062 -8.453125 L 10.003906 -9.078125 L 11.554688 -12.644531 L 11.917969 -12.941406 L 12.382812 -12.679688 L 13.933594 -9.046875 L 13.800781 -8.453125 L 13.304688 -8.1875 Z M 11.984375 -8.15625 "/></g></g></g><g fill="#ffffff" fill-opacity="1"><g transform="translate(32.01691, 30.003765)"><g><path d="M 19.480469 -0.527344 L 20.4375 -0.0976562 L 21.296875 0.164062 L 22.054688 -0.199219 L 22.351562 -0.890625 L 22.519531 -9.871094 L 22.386719 -10.796875 L 22.453125 -11.523438 L 22.320312 -15.484375 L 22.417969 -16.804688 L 22.351562 -17.433594 L 22.351562 -18.753906 L 22.484375 -19.414062 L 22.417969 -20.40625 L 22.484375 -22.121094 L 22.089844 -22.714844 L 21.363281 -23.046875 L 20.703125 -23.113281 L 20.074219 -23.113281 L 19.347656 -23.046875 L 18.65625 -23.144531 L 18.058594 -23.078125 L 17.398438 -23.113281 L 16.609375 -22.78125 L 16.277344 -22.089844 L 16.246094 -16.078125 L 16.375 -15.386719 L 16.375 -14.757812 L 16.246094 -14.066406 L 16.277344 -12.746094 L 16.113281 -12.214844 L 15.648438 -12.347656 L 14.199219 -13.835938 L 13.703125 -14.230469 L 12.546875 -15.417969 L 12.019531 -15.816406 L 11.65625 -16.277344 L 10.960938 -17.003906 L 9.9375 -17.863281 L 9.574219 -18.359375 L 8.949219 -18.785156 L 8.617188 -19.28125 L 8.054688 -19.679688 L 7.628906 -20.238281 L 5.84375 -22.054688 L 4.523438 -22.945312 L 3.632812 -23.210938 L 2.839844 -22.816406 L 2.410156 -22.1875 L 2.476562 -17.566406 L 2.410156 -16.90625 L 2.507812 -15.550781 L 2.441406 -14.957031 L 2.476562 -14.261719 L 2.378906 -13.570312 L 2.507812 -8.847656 L 2.441406 -8.253906 L 2.441406 -7.628906 L 2.378906 -6.902344 L 2.378906 -6.273438 L 2.476562 -5.578125 L 2.441406 -4.226562 L 2.507812 -3.566406 L 2.410156 -2.3125 L 2.507812 -1.652344 L 2.507812 -1.023438 L 2.804688 -0.296875 L 3.433594 0.0664062 L 4.554688 0 L 6.207031 0.0976562 L 6.902344 0 L 7.660156 0.0664062 L 8.320312 -0.265625 L 8.617188 -0.925781 L 8.519531 -1.585938 L 8.617188 -9.675781 L 8.484375 -10.367188 L 8.816406 -10.761719 L 9.246094 -10.664062 L 13.964844 -6.042969 L 14.496094 -5.613281 L 17.695312 -2.410156 L 18.125 -1.882812 L 18.65625 -1.453125 L 19.050781 -0.957031 Z M 19.480469 -0.527344 "/></g></g></g><g fill="#ffffff" fill-opacity="1"><g transform="translate(56.911547, 30.003765)"><g><path d="M 2.441406 -0.957031 L 2.742188 -0.363281 L 3.53125 0 L 7.164062 -0.0664062 L 8.15625 -0.363281 L 8.519531 -0.890625 L 8.585938 -1.519531 L 8.550781 -2.210938 L 8.453125 -2.90625 L 8.550781 -7.363281 L 8.417969 -9.277344 L 8.714844 -9.738281 L 9.210938 -9.609375 L 10.039062 -8.585938 L 11.886719 -6.835938 L 12.316406 -6.273438 L 13.40625 -5.382812 L 14.164062 -5.382812 L 14.726562 -5.777344 L 17.5 -8.585938 L 17.929688 -9.144531 L 18.390625 -9.609375 L 18.785156 -9.675781 L 19.050781 -9.277344 L 19.148438 -8.617188 L 19.050781 -7.988281 L 19.082031 -7.394531 L 19.050781 -6.734375 L 19.148438 -5.515625 L 19.050781 -0.957031 L 19.382812 -0.265625 L 20.109375 0 L 24.070312 0.03125 L 24.695312 -0.363281 L 25.058594 -1.054688 L 25.160156 -1.71875 L 25.027344 -5.679688 L 25.09375 -6.304688 L 25.027344 -7.59375 L 25.125 -8.253906 L 25.09375 -8.914062 L 25.160156 -9.609375 L 25.09375 -10.269531 L 25.191406 -10.863281 L 25.09375 -20.207031 L 25.160156 -20.898438 L 25.09375 -21.460938 L 25.125 -22.15625 L 24.761719 -22.78125 L 24.101562 -23.179688 L 23.113281 -22.882812 L 22.285156 -22.417969 L 21.527344 -21.496094 L 19.644531 -19.546875 L 19.347656 -19.050781 L 14.460938 -13.867188 L 13.734375 -13.636719 L 13.140625 -13.835938 L 12.710938 -14.261719 L 12.316406 -14.824219 L 11.789062 -15.253906 L 11.390625 -15.78125 L 9.113281 -18.125 L 8.320312 -19.117188 L 7.757812 -19.613281 L 7.328125 -20.074219 L 6.964844 -20.570312 L 6.503906 -21 L 6.140625 -21.460938 L 5.414062 -22.21875 L 4.457031 -22.914062 L 3.5 -23.179688 L 2.839844 -22.816406 L 2.476562 -22.15625 L 2.410156 -21.460938 L 2.507812 -6.902344 L 2.378906 -6.273438 L 2.507812 -1.585938 Z M 2.441406 -0.957031 "/></g></g></g><g fill="#ffffff" fill-opacity="1"><g transform="translate(84.513555, 30.003765)"><g><path d="M 12.347656 0.394531 L 14.199219 0.363281 L 16.179688 0.0976562 L 18.65625 -0.726562 L 19.746094 -1.320312 L 20.238281 -1.71875 L 20.867188 -2.015625 L 21.792969 -2.804688 L 22.21875 -3.402344 L 22.683594 -3.863281 L 24.136719 -6.074219 L 24.632812 -7.328125 L 24.894531 -8.585938 L 24.929688 -9.179688 L 25.09375 -9.839844 L 25.125 -10.53125 L 25.257812 -11.488281 L 25.160156 -13.140625 L 24.929688 -14.496094 L 24.101562 -16.972656 L 23.476562 -18.191406 L 22.75 -19.183594 L 21.824219 -20.207031 L 20.867188 -21.03125 L 20.109375 -21.558594 L 19.117188 -21.988281 L 18.621094 -22.351562 L 16.078125 -23.144531 L 14.164062 -23.476562 L 13.273438 -23.507812 L 9.773438 -23.011719 L 7.296875 -22.089844 L 6.800781 -21.726562 L 6.207031 -21.429688 L 5.085938 -20.601562 L 3.46875 -18.722656 L 2.441406 -16.972656 L 1.949219 -15.714844 L 1.386719 -13.175781 L 1.289062 -10.5 L 1.386719 -9.804688 L 1.550781 -9.210938 L 1.617188 -8.585938 L 1.914062 -7.328125 L 3.433594 -4.324219 L 3.828125 -3.929688 L 4.257812 -3.402344 L 4.753906 -2.9375 L 5.117188 -2.507812 L 6.207031 -1.652344 L 8.78125 -0.332031 L 9.738281 0 L 10.464844 0.0664062 L 11.65625 0.332031 Z M 14.199219 -5.449219 L 12.382812 -5.449219 L 11.65625 -5.546875 L 10.464844 -6.042969 L 9.9375 -6.339844 L 9.046875 -7.066406 L 8.617188 -7.527344 L 8.15625 -8.15625 L 7.988281 -8.683594 L 7.691406 -9.277344 L 7.429688 -10.5 L 7.429688 -12.511719 L 7.59375 -13.109375 L 7.691406 -13.734375 L 7.957031 -14.328125 L 8.15625 -14.921875 L 8.949219 -15.980469 L 10.597656 -17.101562 L 11.027344 -17.269531 L 12.316406 -17.597656 L 13.238281 -17.664062 L 14.824219 -17.464844 L 15.417969 -17.335938 L 16.011719 -17.070312 L 17.035156 -16.34375 L 18.324219 -14.988281 L 18.722656 -13.734375 L 19.019531 -13.109375 L 19.117188 -12.511719 L 19.050781 -10.5 L 18.785156 -9.277344 L 18.554688 -8.683594 L 18.191406 -8.089844 L 17.996094 -7.59375 L 17.53125 -7.066406 L 15.949219 -5.976562 L 15.351562 -5.8125 L 14.859375 -5.578125 Z M 14.199219 -5.449219 "/></g></g></g><g fill="#ffffff" fill-opacity="1"><g transform="translate(110.992998, 30.003765)"><g><path d="M 2.476562 -0.957031 L 2.773438 -0.363281 L 3.828125 0.03125 L 15.519531 -0.03125 L 16.441406 -0.363281 L 16.804688 -0.957031 L 16.738281 -1.683594 L 16.773438 -2.34375 L 16.839844 -2.9375 L 16.738281 -3.664062 L 16.839844 -4.292969 L 16.410156 -5.019531 L 15.882812 -5.347656 L 15.15625 -5.25 L 9.34375 -5.316406 L 8.652344 -5.613281 L 8.453125 -6.339844 L 8.484375 -7.5625 L 8.386719 -8.1875 L 8.417969 -8.914062 L 8.351562 -9.574219 L 8.417969 -10.269531 L 8.386719 -11.917969 L 8.484375 -12.84375 L 8.386719 -13.570312 L 8.484375 -14.261719 L 8.386719 -19.414062 L 8.453125 -20.140625 L 8.386719 -21.757812 L 8.054688 -22.75 L 7.199219 -23.144531 L 3.765625 -23.078125 L 2.804688 -22.714844 L 2.378906 -21.824219 L 2.574219 -20.109375 L 2.507812 -19.480469 L 2.410156 -18.785156 L 2.507812 -18.125 L 2.574219 -17.5 L 2.476562 -16.773438 L 2.507812 -16.144531 L 2.441406 -15.484375 L 2.542969 -14.792969 L 2.441406 -14.199219 L 2.507812 -13.535156 L 2.410156 -12.910156 L 2.507812 -11.488281 L 2.410156 -10.863281 L 2.507812 -9.542969 L 2.410156 -8.882812 L 2.441406 -7.5625 L 2.507812 -6.964844 L 2.476562 -2.9375 L 2.542969 -2.277344 L 2.410156 -1.652344 Z M 2.476562 -0.957031 "/></g></g></g><g fill="#ffffff" fill-opacity="1"><g transform="translate(128.756009, 30.003765)"><g/></g></g><g fill="#ffffff" fill-opacity="1"><g transform="translate(137.703553, 30.003765)"><g><path d="M 8.386719 0.363281 L 9.410156 0.363281 L 10.335938 0.265625 L 11.0625 0.265625 L 12.382812 0.0664062 L 12.976562 -0.296875 L 14.824219 -1.15625 L 15.285156 -1.550781 L 15.847656 -1.949219 L 17.167969 -3.402344 L 17.730469 -4.523438 L 18.160156 -5.941406 L 18.324219 -7.5625 L 18.257812 -16.308594 L 18.359375 -16.90625 L 18.292969 -22.15625 L 17.960938 -22.816406 L 16.9375 -23.078125 L 15.285156 -23.113281 L 14.59375 -23.046875 L 11.953125 -23.144531 L 11.226562 -23.046875 L 10.269531 -23.210938 L 9.277344 -23.046875 L 8.585938 -23.046875 L 7.890625 -22.75 L 7.527344 -22.1875 L 7.59375 -21.496094 L 7.5625 -20.867188 L 7.59375 -20.074219 L 7.527344 -19.546875 L 7.59375 -18.886719 L 7.824219 -18.191406 L 8.585938 -17.863281 L 9.210938 -17.761719 L 10.167969 -17.761719 L 11.191406 -17.828125 L 11.886719 -17.464844 L 12.25 -16.839844 L 12.117188 -6.703125 L 11.851562 -6.042969 L 11.488281 -5.578125 L 10.335938 -5.019531 L 9.375 -4.917969 L 8.453125 -5.117188 L 7.792969 -5.347656 L 7.199219 -5.679688 L 6.734375 -6.109375 L 6.503906 -6.667969 L 6.304688 -7.691406 L 6.273438 -9.179688 L 6.339844 -9.773438 L 5.976562 -10.367188 L 5.25 -10.632812 L 3.167969 -10.699219 L 2.507812 -10.632812 L 1.78125 -10.632812 L 1.054688 -10.335938 L 0.726562 -9.707031 L 0.695312 -8.550781 L 0.792969 -7.59375 L 0.757812 -6.601562 L 0.824219 -5.941406 L 1.023438 -5.28125 L 1.484375 -4.09375 L 2.542969 -2.378906 L 3.070312 -1.882812 L 4.589844 -0.726562 L 5.8125 -0.265625 L 6.40625 -0.132812 L 7.132812 0.164062 L 7.726562 0.164062 Z M 8.386719 0.363281 "/></g></g></g><g fill="#ffffff" fill-opacity="1"><g transform="translate(158.306012, 30.003765)"><g><path d="M 0.429688 -0.890625 L 0.59375 -0.199219 L 1.253906 -0.03125 L 4.160156 -0.03125 L 5.019531 0.0664062 L 5.777344 -0.265625 L 6.371094 -0.859375 L 6.933594 -1.980469 L 7.496094 -2.609375 L 8.289062 -2.9375 L 8.949219 -2.871094 L 10.796875 -2.90625 L 11.488281 -2.804688 L 12.25 -2.90625 L 12.84375 -2.90625 L 13.535156 -2.839844 L 15.089844 -2.90625 L 16.179688 -2.542969 L 16.871094 -2.015625 L 17.035156 -1.417969 L 17.398438 -0.824219 L 17.960938 -0.296875 L 18.820312 0.03125 L 19.414062 -0.03125 L 20.570312 0.0664062 L 22.617188 0 L 23.210938 -0.199219 L 23.34375 -0.890625 L 23.144531 -1.71875 L 22.914062 -2.3125 L 22.484375 -2.871094 L 22.285156 -3.53125 L 21.957031 -4.027344 L 21.757812 -4.65625 L 21.195312 -5.84375 L 20.964844 -6.472656 L 20.636719 -7.03125 L 20.171875 -8.253906 L 19.808594 -8.78125 L 19.546875 -9.441406 L 19.25 -10.003906 L 19.019531 -10.664062 L 18.722656 -11.160156 L 18.523438 -11.820312 L 18.160156 -12.414062 L 17.894531 -12.976562 L 17.566406 -13.535156 L 17.398438 -14.164062 L 16.738281 -15.320312 L 16.542969 -15.949219 L 15.949219 -17.203125 L 15.78125 -17.730469 L 15.285156 -18.886719 L 14.625 -20.109375 L 14.097656 -21.363281 L 13.800781 -21.859375 L 13.601562 -22.484375 L 13.007812 -23.113281 L 11.886719 -23.410156 L 10.828125 -23.078125 L 10.203125 -22.484375 L 10.003906 -21.890625 L 8.585938 -18.917969 L 8.222656 -18.324219 L 6.371094 -14.164062 L 6.207031 -13.601562 L 5.84375 -13.007812 L 5.316406 -11.820312 L 4.820312 -10.960938 L 4.589844 -10.335938 L 4.128906 -9.476562 L 3.929688 -8.78125 L 3.632812 -8.253906 L 3.402344 -7.59375 L 2.476562 -5.878906 L 1.519531 -3.46875 L 1.121094 -2.9375 L 0.824219 -2.277344 Z M 10.632812 -8.15625 L 10.003906 -8.417969 L 9.90625 -9.078125 L 11.226562 -12.085938 L 11.523438 -12.613281 L 11.953125 -12.941406 L 12.347656 -12.679688 L 12.777344 -11.390625 L 13.140625 -10.828125 L 13.273438 -10.300781 L 13.601562 -9.640625 L 13.835938 -9.046875 L 13.769531 -8.453125 L 13.207031 -8.1875 Z M 10.632812 -8.15625 "/></g></g></g><g fill="#ffffff" fill-opacity="1"><g transform="translate(182.276173, 30.003765)"><g><path d="M 1.585938 -0.957031 L 1.914062 -0.265625 L 2.574219 -0.03125 L 12.382812 0.03125 L 13.007812 -0.296875 L 13.371094 -0.890625 L 13.371094 -1.617188 L 13.304688 -2.210938 L 13.40625 -4.226562 L 12.941406 -4.789062 L 10.730469 -5.480469 L 10.367188 -6.140625 L 10.433594 -8.847656 L 10.300781 -10.167969 L 10.433594 -11.554688 L 10.367188 -12.546875 L 10.433594 -13.570312 L 10.367188 -14.199219 L 10.433594 -14.859375 L 10.367188 -15.550781 L 10.367188 -16.9375 L 10.730469 -17.53125 L 11.359375 -17.894531 L 12.085938 -17.929688 L 12.710938 -18.292969 L 13.074219 -18.917969 L 13.074219 -20.867188 L 13.140625 -21.460938 L 13.074219 -22.121094 L 12.8125 -22.78125 L 11.753906 -23.078125 L 7.5625 -23.113281 L 6.835938 -23.046875 L 4.820312 -23.078125 L 4.191406 -23.046875 L 2.90625 -23.113281 L 2.179688 -22.78125 L 1.816406 -22.089844 L 1.816406 -21.460938 L 1.75 -20.898438 L 1.75 -20.171875 L 1.816406 -19.511719 L 1.816406 -18.886719 L 2.144531 -18.257812 L 4.160156 -17.566406 L 4.589844 -16.972656 L 4.492188 -14.164062 L 4.523438 -13.601562 L 4.621094 -12.84375 L 4.589844 -11.488281 L 4.523438 -10.828125 L 4.65625 -9.542969 L 4.492188 -8.882812 L 4.621094 -7.460938 L 4.554688 -6.175781 L 4.226562 -5.449219 L 2.046875 -4.753906 L 1.652344 -4.128906 L 1.585938 -3.5 Z M 1.585938 -0.957031 "/></g></g></g><g fill="#ffffff" fill-opacity="1"><g transform="translate(197.26578, 30.003765)"><g><path d="M 19.480469 -0.527344 L 20.4375 -0.0976562 L 21.296875 0.164062 L 22.054688 -0.199219 L 22.351562 -0.890625 L 22.519531 -9.871094 L 22.386719 -10.796875 L 22.453125 -11.523438 L 22.320312 -15.484375 L 22.417969 -16.804688 L 22.351562 -17.433594 L 22.351562 -18.753906 L 22.484375 -19.414062 L 22.417969 -20.40625 L 22.484375 -22.121094 L 22.089844 -22.714844 L 21.363281 -23.046875 L 20.703125 -23.113281 L 20.074219 -23.113281 L 19.347656 -23.046875 L 18.65625 -23.144531 L 18.058594 -23.078125 L 17.398438 -23.113281 L 16.609375 -22.78125 L 16.277344 -22.089844 L 16.246094 -16.078125 L 16.375 -15.386719 L 16.375 -14.757812 L 16.246094 -14.066406 L 16.277344 -12.746094 L 16.113281 -12.214844 L 15.648438 -12.347656 L 14.199219 -13.835938 L 13.703125 -14.230469 L 12.546875 -15.417969 L 12.019531 -15.816406 L 11.65625 -16.277344 L 10.960938 -17.003906 L 9.9375 -17.863281 L 9.574219 -18.359375 L 8.949219 -18.785156 L 8.617188 -19.28125 L 8.054688 -19.679688 L 7.628906 -20.238281 L 5.84375 -22.054688 L 4.523438 -22.945312 L 3.632812 -23.210938 L 2.839844 -22.816406 L 2.410156 -22.1875 L 2.476562 -17.566406 L 2.410156 -16.90625 L 2.507812 -15.550781 L 2.441406 -14.957031 L 2.476562 -14.261719 L 2.378906 -13.570312 L 2.507812 -8.847656 L 2.441406 -8.253906 L 2.441406 -7.628906 L 2.378906 -6.902344 L 2.378906 -6.273438 L 2.476562 -5.578125 L 2.441406 -4.226562 L 2.507812 -3.566406 L 2.410156 -2.3125 L 2.507812 -1.652344 L 2.507812 -1.023438 L 2.804688 -0.296875 L 3.433594 0.0664062 L 4.554688 0 L 6.207031 0.0976562 L 6.902344 0 L 7.660156 0.0664062 L 8.320312 -0.265625 L 8.617188 -0.925781 L 8.519531 -1.585938 L 8.617188 -9.675781 L 8.484375 -10.367188 L 8.816406 -10.761719 L 9.246094 -10.664062 L 13.964844 -6.042969 L 14.496094 -5.613281 L 17.695312 -2.410156 L 18.125 -1.882812 L 18.65625 -1.453125 L 19.050781 -0.957031 Z M 19.480469 -0.527344 "/></g></g></g></svg>